<?xml version="1.0" encoding="utf-8"?>
<!-- Generator: Adobe Illustrator 18.1.1, SVG Export Plug-In . SVG Version: 6.00 Build 0)  -->
<!DOCTYPE svg PUBLIC "-//W3C//DTD SVG 1.1//EN" "http://www.w3.org/Graphics/SVG/1.1/DTD/svg11.dtd" [
	<!ENTITY ns_extend "http://ns.adobe.com/Extensibility/1.0/">
	<!ENTITY ns_ai "http://ns.adobe.com/AdobeIllustrator/10.0/">
	<!ENTITY ns_graphs "http://ns.adobe.com/Graphs/1.0/">
	<!ENTITY ns_vars "http://ns.adobe.com/Variables/1.0/">
	<!ENTITY ns_imrep "http://ns.adobe.com/ImageReplacement/1.0/">
	<!ENTITY ns_sfw "http://ns.adobe.com/SaveForWeb/1.0/">
	<!ENTITY ns_custom "http://ns.adobe.com/GenericCustomNamespace/1.0/">
	<!ENTITY ns_adobe_xpath "http://ns.adobe.com/XPath/1.0/">
]>
<svg version="1.1" id="Layer_1" xmlns:x="&ns_extend;" xmlns:i="&ns_ai;" xmlns:graph="&ns_graphs;"
	 xmlns="http://www.w3.org/2000/svg" xmlns:xlink="http://www.w3.org/1999/xlink" x="0px" y="0px" viewBox="0 0 792 612"
	 enable-background="new 0 0 792 612" xml:space="preserve">
<path display="none" fill="#999999" d="M380.4,0c85.1-0.6,161.3,7.8,229.1,24.9c30.2,7.6,59.3,15.1,86.6,25.7
	c21.7,8.4,42.9,16,62.7,26.2c6.8,3.5,16.7,6.3,21.9,11.5c-1.3,16.8-6.6,33.7-11.1,48.5c-6.2,20.6-11.7,40.2-19.4,59.3
	c-6.6,16.6-14.1,32.7-21.2,48.5c-22.1,50.1-52.1,93.9-83.2,135.1c-10.4,13.7-23,25.7-33.7,39c-24.9,31-58.2,60.5-90.8,83.7
	c-15.7,11.2-32,22.1-48.8,32.2c-9.7,5.2-19.5,10.6-29.1,15.8c-39.2,22.8-85,38-133.3,51.3c-11.6,3.2-23.7,5.2-36.5,7.8
	c-4.8,0.9-12.1,3.1-17.8,2c-7.8-1.6-15.1-5-21.9-8.1c-24.5-10.7-46.1-25-66.6-39.7c-66-47.2-113.9-114.1-140.8-200.5
	c-5.1-16.5-8.2-34.3-11.5-53.3c-0.6-9.2-1.4-18.4-2-27.7c-1.3-8.1-1.6-26.6-0.2-35c2-12.4,0.3-24.8,2.3-36.3c1-9.4,2-18.8,3-28.2
	c4.4-23.7,7.8-47.1,13.3-69c2.8-11,5.7-22,8.6-32.9c5-2.7,10.1-5.6,15.1-8.3c12.3-7.1,25.6-12.6,39.2-18.3
	c41.6-17.6,87.2-29.1,136.3-40C250.8,9.9,272,8.8,293.3,5c19.4-3.5,39.9-1.3,60.2-4.5C362.3,0.5,371.3,0.3,380.4,0z"/>
<g display="none">
	<path display="inline" fill="#FFFFFF" d="M364.5,341.3c-57.3,3.4-104.1-15.3-142.6-34.5c0.1,0.2,0.2,0.3,0.2,0.5
		c3.2,2.2,6.5,4.4,9.9,6.5c8.2,4.4,16.2,8.9,24.4,13.3c21.9,9.6,45.1,17.7,70.4,24.1c82.6,21.1,187.1,8.2,257.8-14
		c21.1-6.6,41-13.6,60.2-21.9c6.8-2.9,17.9-5.7,22.1-11.3c-10.2,2-21.8,1-32.7,2.7c-3.2,0-6.5,0-9.9,0c-9.7,1.5-23,0.5-32-1
		c-5.3-0.8-21.1-1.6-22.6-5c3.9-1,7.8-2.2,11.5-3.2c9.9-3,19.3-6,28.4-9.5c31.1-12.3,58.8-25.3,83.2-43.8
		c5.3-4.1,11.5-8.4,15.6-13.8c-21.5,8.1-51.7,4.7-77.8,4.3c0-0.3,0-0.6,0-1c11.5-1.8,22.8-8.3,32.7-12.6
		c28.4-12.5,56.6-28.7,72.9-53.3c12.4-18.5,14.4-40.6,0.5-58.9c-16.9-22.2-44.9-33.3-72.7-44.7c-18.7-7.6-37.5-15-58.1-21.2
		c-22.8-6.9-47.4-10.3-71.7-15.6c-19.2-4.2-39.4-4.8-59.3-8.3c-6.9-0.6-13.7-1.2-20.6-1.8c-17.3-2.8-36.4-0.6-54.3-3.6
		c-8.2-0.1-16.2-0.2-24.4-0.2c-4.7-0.7-30.5-0.9-34.2,0.5c17.9-0.2,36.9,0.3,53.3,3c18.9,3.1,36.9,3.1,54.3,7
		c36,8,68.5,18.7,96.3,35c19.2,11.2,40.7,22.8,53.3,40.5c-0.3,3.6-1.5,24-0.2,25.4c3.1,2.7,6.2,5.6,9.3,8.3
		c10.7,13.3,22.5,31.2,17.4,57.1c-1.2,6-2.7,11.9-4.5,17.1c-2.2,6.2-4,14.9-8.3,19.1c-0.2,0-0.3,0-0.5,0c-7.3-9.5-19.5-16.9-30-23.4
		c-34-21.3-87.3-39.1-143.4-26.9c-17.2,3.8-33.2,8.4-48,14.6c-7,3.1-14,6.4-21.2,9.5c9.4-17.3,19-34.6,28.4-51.8c-0.2,0-0.3,0-0.5,0
		c-24.7-4.2-49.5-8.4-74.2-12.6c-4-0.8-24.7-2.9-25.9-4.8c30.2-11.2,60.4-22.4,90.5-33.7c-22.7-6.4-45.5-12.8-68.1-19.1
		c-3.9-1.2-23.9-5.3-24.9-7.5c35.1-9.1,70.2-18.2,105.4-27.5c-8.5-1.5-17-3-25.4-4.5c-7.9-0.7-15.7-1.5-23.7-2.3
		c-5.9-0.2-11.7-0.3-17.6-0.5c-6,0-11.9,0-17.8,0c-10.6,1.8-21.3,0.1-30.9,1.8c-12.4,2.1-24.1,2-35.7,4.5
		c-42.2,9.3-78.4,22.5-100.1,52.1c-8,10.8-13.4,23.3-16.9,38.8c-5.4,24.6,4.4,54.6,11.3,72.2c2.7,6.9,7.5,22.1,12.1,26.6
		c-7.4-19.1-12.2-50.9-1-69.7c1.6-2.6,3.2-6.6,5.8-8.3c4.7-3.1,16.9-2,22.8-0.7c19.1,4.1,36.9,10.4,51.8,19.1
		c42,24.5,80.6,50.2,106.2,91.1C354,284.1,364.6,308,364.5,341.3z"/>
	<path display="inline" fill="#FFFFFF" d="M107.9,69.5c-2.6,10.2-7.5,21-10.8,31.6c-4.3,14.3-6.1,29.7-9,45.3
		c-6.7,35.1-3.6,87.2,4.3,118c3.7,14.4,6.7,27.5,11.8,40.2c26.9,67.9,76.6,112.8,143.1,141.1c24.3,10.3,50.4,16.8,79.4,22.6
		c30.2,6.1,76.8,6.5,107.6,0.7c14.4-2.6,27.8-3.9,41-7.3c55-14,107.2-38.4,137.8-76.5c8.2-10.2,17.2-19.6,25.2-30.2
		c2.7-3.6,5.3-7.2,8.1-10.8c-27.9,12.7-57.3,23.7-89.1,33.2c-19.7,6-40.6,9.3-61.8,13.6c-15.6,3.1-32.1,2.8-48.5,5.6
		c-8.6,0.2-17.1,0.5-25.7,0.7c-6.5,1-15.9,0.8-22.4-0.2c-6-0.2-11.9-0.5-17.8-0.7c-14.1-2.3-28.5-2.6-41.5-5.6
		c-14.3-3.1-27.7-5.2-40.8-9.3c-69.8-21.8-122.7-55.2-157-112.4c-15.9-26.5-24.7-56.9-32.5-92c-2.5-11.3-2-23.3-4-35.2
		c-0.2-7.1-0.3-14.3-0.5-21.4c0-11-0.6-21.9,1-32C106.7,82.2,107.3,75.8,107.9,69.5z"/>
	<path display="inline" fill="#FFFFFF" d="M473.7,92.3c15.7,8.4,31.5,16.8,47.3,25.2c-0.7,4.4-7.1,12.1-9.5,15.8c0,0.1,0,0.2,0,0.2
		c20.7-2.3,41.6-4.5,62.4-6.8C540.4,115.3,507,103.9,473.7,92.3z"/>
	<path display="inline" fill="#FFFFFF" d="M60.1,110.5c-2.1,6.1-4.2,12.1-6.3,18.1c-2.3,7.8-4.5,15.6-6.8,23.4
		c-5.8,19.3-8.1,39.8-12.1,60.9c-2.6,14-1.3,28.9-3.8,43.8c0,6.3,0,12.6,0,18.9c0.5,25.8,2.5,49.1,7.8,70.2
		c4.2,16.3,7.8,31.4,13.8,45.8c24.9,58.8,66.3,102,115.2,136.9c22.7,16.2,46.2,30.8,72.2,44c14,7.1,28.8,15.4,51.3,11.3
		c36.3-6.5,66.3-15.5,95.8-28.2c12.1-5.1,23.7-11.6,35.4-16.9c25.7-11.3,50-25.8,72.4-40.8c10-6.6,22.3-13.6,29.4-23.2
		c-26.4,10.1-55.3,16.1-86.2,22.4c-51,10.3-119.6,6.1-163.3-7c-102.2-30.7-172.4-95.6-204.2-196.4c-5.6-17.5-8.7-36-12.4-55.5
		c-0.8-8.5-1.7-17-2.5-25.4c-1.5-8.9,0.3-18.8-1.3-28.4c-0.1-3.2-0.2-6.5-0.2-9.9c2.3-14.3,0.2-28.8,2.5-42.2
		C58.1,124.8,59.2,117.7,60.1,110.5z"/>
</g>
<g>
	<g>
		<path fill="#ffffff" d="M201.8,143.1c24.9-0.5,45.5,7.4,63.4,14.9c46.5,19.2,84.6,45.5,109.2,86.6c10.4,17.3,13.7,32.6,17.8,56.6
			c2.7,16-3.2,35.3-15.3,37c-0.1-0.1-0.2-0.2-0.2-0.2c0-17.4-5.9-41.1-11.1-54.3c-20.6-52.2-66.5-87-112.7-113.9
			c-14.3-8.3-30.9-14.3-48-19.4c-2.7-0.8-19.1-3.2-19.9-4.5c3.1-0.6,6.2-1.4,9.3-2C196.8,143.5,199.3,143.3,201.8,143.1z"/>
	</g>
</g>
<g>
	<g>
		<g>
			<path fill="#ffffff" d="M375.1,245.5c-24.2-40.5-60.9-66.2-106.2-85.7c-19.8-8.6-40-17.2-69-16.6c-4.1,1.7-10.6,1.3-14.6,2.5
				c3.1,2.9,14.9,3,19.9,4.5c13.8,4.2,27.7,8.9,39.7,15.1c46.2,23.6,96,62.6,117.2,110.9c7.3,16.8,14.9,37.7,14.4,61.6
				c0.2,0.1,0.5,0.2,0.7,0.2c10.9-3.7,18.1-18.2,15.3-34.2C388.8,281.9,384.7,261.5,375.1,245.5z"/>
			<path fill="#ffffff" d="M760.4,77.8c-19-9.1-39.1-17-59.6-25.2c-23.3-9.2-48.3-15.5-74.2-23.2C554.1,8,469.8-0.5,375.9,0
				c-6.1,0.2-12.1,0.3-18.1,0.5c-6.7,0.6-13.4,1.4-20.1,2c-4.2,0.1-8.4,0.2-12.6,0.2c-7,0.3-14,0.6-21.2,1
				c-20.9,2.8-41.7,5.7-62.7,8.6c-47.7,10.4-94.4,20.9-136,37.5c-14.8,5.9-31,11.6-44.4,19.6c-7,4-14,7.9-21.2,11.8
				C36,95.3,32.4,109.2,28.8,123c-3.8,20.4-7.5,40.9-11.3,61.4c-1.3,11.9-2.5,23.8-3.8,35.7c-0.1,6.3-0.2,12.6-0.2,18.9
				c-2.4,14.5-2.6,34.1-0.2,48.8c0.5,7.8,1,15.4,1.5,23.2c2.3,11.7,4.5,23.5,6.8,35.2C43.7,432.9,90.9,506.1,153,553.1
				c22.8,17.3,46.2,35,74,47.3c9.3,4.1,18.2,9.4,29.4,11.5c6.6,1.3,12.9-1.4,17.8-2.5c12.6-2.9,25.4-4.6,37-8.1
				c48.7-14.6,94.1-28.7,133.5-51.8c11-6,22-11.9,32.9-17.8c22.6-14.1,44.2-29.4,65.2-45.3c28.6-21.6,53.7-48,76-76
				c8.2-10.2,18.2-19,26.2-29.4c33-43.7,63-88.9,86.6-142.3c7.1-16.1,14.8-32.4,21.4-49.3c6.1-15.4,10-31.8,15.1-48
				c5.1-16.1,11.8-33.2,12.6-52.8C776.3,82.9,767.2,81,760.4,77.8z M481.4,506.6c-42,26.4-89.5,49.7-141.4,65.9
				c-12.6,3.9-25.3,5.9-38.8,9c-7.9,1.9-18.5,4.6-28.7,2.7c-16.7-3-29.2-9.9-41.7-17.1c-15.7-9.1-31.2-17.4-46-27.1
				c-56.9-37.6-104.9-84.3-133.1-150.7c-5.4-12.8-8.1-26.9-12.1-41.3c-7.1-25.8-12.3-72.5-7-104.6c0.5-9,1-17.9,1.5-26.9
				c3.2-17.9,6.5-35.8,9.9-53.9c4.4-17.2,10.8-33.7,15.3-50.1c1.2,3.1-1.6,14.8-2.3,18.3c-2,10.6,0.4,23.6-1.5,35.2
				c-0.3,4.3-0.6,8.6-1,12.8c1.6,9.4-0.7,20.1,1,30.4c1,9.7,2,19.5,3,29.1c3.9,18.8,6.9,38.1,12.4,55.3
				c31.8,100.5,100.8,163.1,201.4,194.9c15.1,4.7,31.8,7.3,49,10.6c8.9,0.7,17.8,1.5,26.6,2.3c8.7,1.5,24.3,2.2,33.4,0.7
				c9.3-0.4,18.7-0.8,27.9-1.3c27.9-4.7,53.2-8.1,78.5-15.1c8.2-2.3,16.2-4.7,24.4-7c3.9-1.4,7.8-2.7,11.5-4v0.4h0.2
				C517.8,485.9,492.7,499.5,481.4,506.6z M639.2,353.9c-8.1,11-17.6,20.5-25.9,31.2c-31.2,40.1-83.6,63-140.3,77.4
				c-10.7,1.8-21.3,3.6-32,5.2c-26.6,5.7-71.8,8.4-101.3,2.7c-23.9-4.5-46.6-9-68.1-15.8c-77.9-24.6-135.4-74.4-166-146.6
				c-4.3-10.3-6.6-21.1-10.1-32.5c-4.5-15.1-6.3-31.4-9.3-48.8c-0.4-7.7-0.8-15.3-1.3-22.8v-25.2c0.6-8,1.2-15.9,1.8-23.9
				c3.1-16.8,4.8-35,9.5-50.8c3.7-10.6,7.3-21.2,11.1-31.6c1.5,3.7-1.4,17.1-2,21.2v32.2c0.1,5.7,0.2,11.2,0.2,16.9
				c1.2,10.9,2.3,21.8,3.6,32.7c7.4,33.3,16.1,65.9,31.4,91.6c35.5,59.2,91.1,94.6,164,116.4c15.4,3.1,30.8,6.4,46.3,9.5
				c5.2,0.5,10.6,1,15.8,1.5c26.8,4.7,65.8,5.1,93.3,0.5c10.8-1,21.6-2,32.5-3c20.3-4.3,42.1-7.1,61.4-13.1
				c20.4-6.3,40.7-12.7,59.8-20.3c10.7-4.5,21.3-9,32-13.6h0.2C644.7,348.2,641.2,351.2,639.2,353.9z M699.6,202.5
				c-15.8,10-34.3,18.4-52.1,26.2c-4.9,2.1-10.6,2.7-15.8,5c-0.2,0.2-0.5,0.3-0.7,0.5c3,2.1,15.1,0.2,19.9,1
				c12.3,1.9,32.7,1.3,43.8-1c4.4-1,8.9-2.2,13.3-3.2v0.2c-4.6,8-15.6,13.6-23.2,18.9c-23.1,16.2-50.3,28.4-78.5,39.5
				c-12.1,3.9-24.1,7.8-36.3,11.5c3.9,4.5,14.7,3.2,21.6,4.5c23.4,4.3,50.7-0.3,74.7-1.3v0.2c-4.4,5.9-14.1,7.5-21.4,10.6
				c-17.7,7.3-35.9,14.3-55.3,20.3c-17.9,5.7-37.1,10.3-56.6,15.1c-11.7,2-23.5,4-35.2,6.1c-15.7,3-32.4,1.8-49,4.5
				c-8.7,0.2-17.4,0.5-26.2,0.7c-5.8-0.1-11.5-0.2-17.4-0.2c-9.2-0.5-18.4-1-27.7-1.5c-11.1-1.6-22.3-3.1-33.4-4.8
				c-21.3-4.7-41.7-10.1-60.4-17.4c-15.3-6-29.2-11.5-42.2-19.1c-6-3.5-14-6.1-18.3-11.3c9.1,4.2,18.2,8.4,27.5,12.6
				c32.1,13.6,67.9,22.3,113.7,21.2c0.8-3,0.2-7.9-0.2-10.8c-0.6-5.7-1.4-11.4-2-17.1c-2.8-12.6-6.9-23.8-12.1-34
				c-25.9-50.9-69.2-79.6-117.5-108.1c-13.5-8-29.1-12.8-46.5-17.1c-6-1.5-16.1-3.5-23.2-1.3c-4.3,1.4-5.4,4.9-7.5,8.6
				c-10.6,18-8.3,49-0.5,68.6v0.7c-5.1-4.1-8.3-18.2-11.1-25.2c-11.2-28.1-19.1-60.5-5.6-92.3c18.4-43.3,62.2-60.2,112.7-71.5
				c6.9-0.7,13.9-1.5,20.9-2.3c9.2-1.6,17.6-2.5,28.4-2.5c26,0,54.8-2.4,78.2,2.5c4.8,1,17.8,1.5,20.9,4c-24,6.3-48,12.6-71.9,18.9
				c-7.8,2-15.4,4-23.2,6.1c-2.9,0.8-6.7,0.8-8.8,2.5c4.1,4,18.3,5.3,24.9,7.3c22.1,6.3,44.2,12.6,66.4,18.9
				c0.2,0.1,0.3,0.2,0.5,0.2c-29.8,11.1-59.5,22.3-89.3,33.4v0.2c3.5,3.2,17.2,3.1,23.2,4.3c18.2,3.1,36.6,6.4,54.8,9.5
				c5.2,1.2,18.4,1.4,21.9,4c-9.2,16.9-18.4,33.7-27.7,50.5v0.2c8.4-3.7,16.8-7.3,25.2-11.1c14.8-5.9,31-10,47.8-13.6
				c61.5-13.2,120.1,13.3,154.5,37.7c5.6,4,9.6,9.5,14.9,13.6c5.1-3.9,5.8-12.4,8.3-18.9c9.7-25.2,6.1-48.7-7-67.4
				c-2.5-3-5-6.1-7.5-9c-2.5-2.2-5-4.4-7.5-6.5c-2.5-5.2,2.3-21.6,0.2-25.7c-1.9-2.2-3.9-4.4-5.8-6.5c-10.6-13.2-27.1-21.3-42-30.2
				C520.6,44,485.3,31.9,445.1,23.1c-12.2-2.7-25.4-2-38.2-4.3c-19.1-3.4-39.3-5-62.1-4.8c-0.1-0.2-0.2-0.3-0.2-0.5
				c1.8-0.2,3.6-0.3,5.2-0.5c73.3,0,143.5,5,203.9,18.3c15.7,3.5,31.3,5.1,46,9.5c32.2,9.6,61.9,21.4,91.1,34.2
				c20.3,8.9,41.4,22.1,51.3,41.5C761.2,154.4,720.8,189.2,699.6,202.5z M508.9,111.2c-10.8-5.9-21.6-11.7-32.5-17.6
				c22.8,7.8,45.6,15.6,68.4,23.4c6.1,2.2,24.1,6.4,27.9,9.9c-20.2,2.3-40.5,4.5-60.6,6.8c-0.2-0.2-0.3-0.3-0.5-0.5
				c2.8-5,6.8-8.9,9-14.6C520,115.2,511.7,112.7,508.9,111.2z"/>
		</g>
	</g>
</g>
</svg>
