<?xml version="1.0" encoding="utf-8"?>
<!DOCTYPE svg PUBLIC "-//W3C//DTD SVG 1.1//EN" "http://www.w3.org/Graphics/SVG/1.1/DTD/svg11.dtd">
<svg version="1.1" xmlns="http://www.w3.org/2000/svg" xmlns:xlink="http://www.w3.org/1999/xlink" width="2048" height="2048" viewBox="0 0 2048 2048">
<path d="M984.768 226.41c317.838-2.328 598.774 49.206 825.85 139.304 50.868 20.28 103.73 40.228 149.61 66.826 18.618 10.972 37.568 21.942 56.188 32.914-15.958 141.298-66.494 273.62-115.034 385.33-10.638 22.276-21.61 44.55-32.25 66.826-39.896 90.432-94.42 172.55-148.946 249.35-104.394 146.286-228.072 279.938-375.024 384.332-40.894 28.924-83.782 56.188-127.336 82.12-21.61 11.636-43.22 22.94-64.832 34.576-96.084 55.854-211.782 94.088-330.14 126.67-32.914 8.976-66.826 14.628-103.398 21.61-12.302 2.328-29.922 6.982-45.216 4.322-27.928-4.988-51.864-16.29-75.47-26.598-66.494-29.258-125.672-69.486-180.53-110.712-172.884-130.328-289.58-306.536-359.398-540.592-32.914-110.046-34.91-305.87-10.972-429.216 13.298-68.82 20.612-134.65 38.898-196.82 6.65-24.602 13.632-49.206 20.28-73.476 4.322-7.314 29.922-18.618 38.234-23.606 32.914-19.284 68.488-35.574 105.060-51.2 103.398-44.55 216.436-75.47 339.116-102.732 58.514-12.966 120.020-16.624 181.86-27.262 46.546-7.98 96.084-2.66 143.958-10.638 23.272-0.332 46.212-0.664 69.486-1.33z" fill="rgb(153, 153, 153)"></path>
<path d="M984.104 271.958c-22.276 0.664-44.55 1.33-66.826 1.994-47.542 7.646-96.416 2.66-142.296 10.638-54.192 9.31-108.716 11.968-160.25 23.606-120.686 26.598-233.060 54.858-335.128 98.41-33.58 14.296-66.494 27.594-96.416 45.216-12.302 6.65-24.602 13.632-37.236 20.28-6.982 26.93-13.964 53.86-20.946 81.122-12.634 49.87-20.28 103.064-30.92 156.592-2.328 21.278-4.988 42.556-7.314 63.834-4.322 24.602-1.994 50.868-6.316 77.464-3.324 21.278-1.994 45.88-1.994 69.154 0 79.46 6.65 152.936 25.268 215.106 67.824 226.742 184.188 400.29 355.74 522.638 45.88 32.914 94.42 66.826 148.946 90.764 21.278 9.31 44.218 21.942 68.82 26.598 14.962 2.992 33.912-2.992 46.546-5.652 33.246-6.982 65.164-11.968 95.418-20.946 100.406-29.922 192.832-59.844 278.276-103.398 92.758-47.21 177.538-97.412 256.664-157.258 26.264-21.61 52.53-43.22 78.462-64.832 9.642-9.31 19.284-18.618 28.924-27.928 33.246-26.93 64.166-61.506 90.764-94.754 11.968-12.966 23.938-25.932 35.906-38.898 26.264-32.914 53.86-64.832 78.462-99.74 66.162-92.758 129.662-189.506 178.202-299.886 19.948-45.548 40.228-92.426 58.846-140.302 15.958-41.226 26.598-83.782 39.564-128 7.646-25.268 12.302-51.864 18.618-79.128 1.662-7.314 5.652-19.284 4.322-26.598-24.936-12.966-49.87-25.6-74.806-38.234-50.202-22.276-102.068-41.226-154.598-61.838-46.878-18.286-96.084-28.26-145.954-43.22-46.878-13.964-96.084-21.61-146.618-32.914-138.306-30.588-293.236-39.564-460.136-39.896z" fill="rgb(34, 34, 34)"></path>
<path d="M943.876 1110.11c1.33-57.85-14.628-103.73-32.25-143.626-51.864-117.694-168.228-208.79-280.936-266.638-39.896-20.28-80.124-38.566-129.994-50.202-14.628-3.324-46.212-6.65-58.182 1.33-8.644 5.652-14.628 20.28-19.284 30.254-16.956 39.232-12.966 98.742 0 139.636 3.99 10.972 8.312 22.276 12.302 33.246-0.332 0-0.332 0-0.664 0 0-0.332 0-0.664 0-1.33-22.276-29.258-33.912-70.816-46.546-108.716-8.644-25.932-15.294-57.85-19.284-86.11-10.306-77.464 25.932-131.324 57.516-170.556 95.75-119.356 402.286-157.922 607.418-109.382 0 0.332 0 0.332 0 0.664-87.106 22.608-173.88 44.884-260.988 67.49 0.332 0.332 0.332 0.664 0.664 1.33 76.8 20.946 153.268 42.224 230.068 63.168-0.332 0.332-0.332 0.664-0.664 1.33-74.806 27.594-149.278 55.19-223.75 82.784 0 0.332 0 0.332 0 0.664 82.784 13.632 165.236 27.262 248.020 40.894 0 0.332 0 0.332 0 0.664-23.606 42.556-47.542 84.78-71.148 127.336 58.846-27.262 113.704-47.876 187.512-63.168 130.328-26.598 260.322 21.942 335.792 69.154 25.268 15.958 55.854 33.912 73.476 57.516 0.332-0.332 0.664-0.332 1.33-0.664 3.99-8.644 8.312-17.288 12.302-25.932 7.98-18.95 13.632-40.228 17.954-62.504 12.302-63.502-16.29-105.392-42.556-137.974-6.316-7.646-14.628-17.62-24.27-21.61 0.664-20.946 1.33-42.224 1.994-63.168-6.982-7.314-13.964-14.962-20.946-22.276-18.618-15.294-36.904-30.92-56.852-45.216-79.792-56.188-178.868-93.090-290.244-117.362-44.884-9.974-92.758-10.638-140.302-18.618-17.288-1.33-34.576-2.328-51.864-3.658-29.258-0.998-58.514-1.994-87.772-2.992 23.272-0.664 46.546-1.33 69.818-1.994 23.272 0.332 46.546 0.332 69.818 0.664 12.966 0.332 25.6 0.332 38.234 0.664 40.894 6.316 83.782 2.328 123.012 8.644 52.198 8.312 102.732 7.98 152.27 17.954 73.476 14.628 146.286 24.27 214.11 44.55 50.536 15.294 97.080 33.246 142.962 51.864 50.868 20.946 97.746 40.228 137.974 70.484 39.564 29.922 84.78 81.454 57.516 150.94-4.988 12.966-11.636 25.6-19.284 36.572-41.558 59.18-108.384 98.742-178.202 129.33-24.602 10.638-51.864 25.6-80.458 30.92 0 0.332 0 0.664 0 1.33 29.258 0.664 62.504 8.644 95.418 3.658 13.632-0.998 27.594-1.994 41.558-2.992 19.616-3.324 38.566-7.314 56.188-11.636-10.638 13.964-26.264 25.268-40.228 35.906-58.846 44.218-125.008 76.468-199.812 105.724-21.61 8.312-43.554 15.626-66.826 22.94-12.302 3.658-24.27 6.982-36.572 10.638 0.332 0.332 0.332 0.664 0.664 1.33 11.304 2.66 22.608 5.32 33.912 7.98 12.302 1.33 24.602 2.328 37.236 3.658 10.972 0.332 22.276 0.332 33.246 0.664 9.642 0 19.284 0 28.924 0 15.958-0.332 32.25-0.664 48.208-1.33 19.284-1.994 38.234-3.658 57.516-5.652-11.304 14.628-37.568 21.278-55.522 28.924-43.886 18.95-89.434 35.574-137.974 50.868-66.494 20.946-137.31 35.242-212.114 50.202-39.896 7.98-81.122 5.652-123.678 12.302-18.95 2.992-59.844 4.988-79.128 1.994-9.31 0-18.618 0-27.928 0-19.948-1.33-39.896-2.328-59.844-3.658-32.25-5.32-64.498-6.316-95.418-12.966-63.502-13.964-122.68-28.924-176.872-51.2-39.232-16.29-74.14-33.246-107.72-54.524-9.31-5.984-20.946-11.304-28.592-19.284 10.972 5.652 22.276 10.972 33.246 16.624 16.956 7.314 33.912 14.296 50.868 21.61 49.206 19.616 101.736 33.246 158.254 45.88 20.28 2.328 40.228 4.988 60.51 7.314 20.28 3.324 40.562-1.994 56.852-2.66z" fill="rgb(153, 153, 153)"></path>
<path d="M315.512 436.53c-1.994 15.626-3.658 30.92-5.652 46.546-4.322 26.264-2.992 55.19-2.992 84.114 0.332 17.62 0.664 34.91 1.33 52.53 4.654 29.258 3.99 58.846 9.974 86.442 18.95 86.442 40.894 161.246 79.792 226.41 84.114 140.634 214.442 223.086 385.994 276.612 32.25 9.974 65.164 15.294 100.072 22.94 31.916 6.982 67.158 7.98 102.068 13.632 14.628 0.664 29.258 1.33 43.886 1.994 15.626 2.328 38.234 2.992 53.86 0.664 20.946-0.664 42.224-1.33 63.168-1.994 40.562-6.65 81.122-5.984 119.356-13.632 89.434-17.954 174.212-34.91 251.678-64.832 27.262-10.638 54.524-21.61 81.788-32.25 13.632-6.316 27.262-12.966 40.894-19.284-15.958 29.922-42.556 54.524-63.168 80.458-73.142 91.762-175.21 155.262-300.55 194.826-37.236 11.636-74.806 18.286-115.698 27.262-74.472 16.29-201.142 23.938-283.928 8.644-46.546-8.644-90.764-14.962-132.322-27.928-232.394-72.81-390.316-205.132-460.8-440.52-27.594-92.426-39.232-236.052-17.288-345.766 12.302-63.834 24.27-124.676 48.54-176.872z" fill="rgb(153, 153, 153)"></path>
<path d="M1205.528 495.376c85.112 29.258 170.224 58.514 255.336 87.772 0 0.332 0 0.332 0 0.664-0.332 0-0.664 0-1.33 0-51.864 5.652-104.062 11.636-155.928 17.288 8.312-13.298 16.624-26.264 24.602-39.564-40.562-21.942-81.788-44.218-122.68-66.162z" fill="rgb(153, 153, 153)"></path>
<path d="M197.818 536.27c-2.328 16.624-4.988 33.246-7.314 50.202-2.328 29.258-4.654 58.514-6.65 87.772-0.332 8.976-0.332 17.62-0.664 26.598 0.332 7.646 0.332 15.294 0.664 22.94 3.99 23.938-0.332 48.208 2.992 69.818 1.994 20.946 3.99 41.558 6.316 62.504 8.976 47.876 16.624 93.756 30.254 136.644 78.13 247.688 251.012 408.27 502.358 483.076 109.382 32.582 281.268 42.556 407.606 15.958 73.142-15.294 146.286-27.262 207.792-55.19-7.314 14.628-35.906 32.25-49.538 42.224-42.888 30.254-88.436 55.522-135.314 82.784-92.426 53.86-192.498 94.42-305.538 128-32.25 9.642-65.828 12.302-104.062 18.618-11.968 1.994-29.922 2.992-42.224 0-18.618-4.322-35.574-14.962-51.864-22.276-48.872-21.61-93.090-48.872-136.644-76.136-106.058-66.826-200.146-151.938-271.626-253.672-17.62-24.936-35.906-52.53-48.872-81.788-20.28-46.212-36.904-92.758-50.868-147.284-9.31-37.236-11.636-78.462-18.618-120.686-0.664-20.28-1.33-40.894-1.994-61.174 0.332-19.284 0.332-38.898 0.664-58.182 6.316-39.232 4.322-78.13 11.636-115.034 9.974-49.87 17.288-98.41 30.92-143.958 9.642-30.92 22.276-61.506 30.588-91.762z" fill="rgb(153, 153, 153)"></path>
<path d="M544.914 624.042c-6.316 0.332-12.302 0.664-18.618 1.33-7.646 1.662-15.294 3.324-22.94 4.988 0 0.332 0 0.332 0 0.664 14.628 0.332 29.258 4.654 41.558 7.98 39.564 10.972 74.14 23.272 107.054 40.228 116.032 59.18 240.706 156.924 292.572 278.94 12.302 28.924 17.62 61.838 24.602 96.416 1.994 15.958 3.99 31.584 6.316 47.542 26.93-8.312 30.254-26.93 35.242-57.516 0.332-10.638 0.664-21.61 1.33-32.25-8.976-54.524-18.286-95.75-41.558-134.982-58.846-100.406-148.946-164.904-260.322-212.78-47.21-19.948-99.408-40.228-165.236-40.562z" fill="rgb(34, 34, 34)"></path>
<rect x="28" y="56.054" fill="#45bbe6" width="56" height="56" id="screen"/>
</svg>